<svg width="50" height="50" viewBox="0 0 50 50" fill="none" xmlns="http://www.w3.org/2000/svg">
<path d="M44.5958 12.6792L25.8458 4.34584C25.5792 4.22736 25.2907 4.16614 24.9989 4.16614C24.7072 4.16614 24.4187 4.22736 24.152 4.34584L5.40204 12.6792C5.36038 12.6979 5.33121 12.7292 5.28954 12.7521C5.23121 12.7813 5.16871 12.8 5.11454 12.8354C5.06871 12.8667 5.03329 12.9063 4.98954 12.9396C4.83726 13.0528 4.70369 13.1891 4.59371 13.3438C4.55204 13.4021 4.50829 13.4542 4.47079 13.5125C4.40879 13.6226 4.35583 13.7376 4.31246 13.8563C4.29371 13.9125 4.26454 13.9646 4.24788 14.0208C4.19555 14.2038 4.16822 14.393 4.16663 14.5833V35.4167C4.16663 36.2417 4.64996 36.9854 5.40413 37.3208L24.1541 45.6542C24.425 45.775 24.7125 45.8333 25 45.8333C25.29 45.8259 25.5753 45.7578 25.8375 45.6333L25.8458 45.6542L44.5958 37.3208C44.9643 37.1574 45.2775 36.8904 45.4971 36.5524C45.7168 36.2144 45.8336 35.8198 45.8333 35.4167V14.5833C45.8336 14.1802 45.7168 13.7856 45.4971 13.4476C45.2775 13.1096 44.9643 12.8426 44.5958 12.6792ZM25 8.53125L38.6208 14.5833L25 20.6354L22.275 19.425L11.3812 14.5833L25 8.53125ZM8.33329 34.0646V17.7896L22.9166 24.2708V40.5438L8.33329 34.0646ZM27.0833 40.5438V24.2708L41.6666 17.7896V34.0646L27.0833 40.5438Z" fill="white"/>
</svg>
