<svg width="30" height="30" viewBox="0 0 30 30" fill="none" xmlns="http://www.w3.org/2000/svg">
<path d="M14.9883 2.23537C7.74316 2.23244 1.875 8.09767 1.875 15.3369C1.875 21.0615 5.5459 25.9277 10.6582 27.7149C11.3467 27.8877 11.2412 27.3985 11.2412 27.0645V24.794C7.26563 25.2598 7.10449 22.6289 6.83789 22.1895C6.29883 21.2695 5.02441 21.0352 5.40527 20.5957C6.31055 20.1299 7.2334 20.7129 8.30273 22.292C9.07617 23.4375 10.585 23.2442 11.3496 23.0537C11.5166 22.3653 11.874 21.75 12.3662 21.2725C8.24707 20.5342 6.53027 18.0205 6.53027 15.0322C6.53027 13.582 7.00781 12.249 7.94531 11.1738C7.34766 9.40138 8.00098 7.8838 8.08887 7.65822C9.79102 7.50588 11.5605 8.87697 11.6982 8.98537C12.665 8.72463 13.7695 8.58693 15.0059 8.58693C16.248 8.58693 17.3555 8.73048 18.3311 8.99416C18.6621 8.7422 20.3027 7.56447 21.8848 7.70802C21.9697 7.93361 22.6084 9.41603 22.0459 11.1651C22.9951 12.2432 23.4785 13.5879 23.4785 15.041C23.4785 18.0352 21.75 20.5518 17.6191 21.2783C17.973 21.6263 18.2539 22.0413 18.4455 22.499C18.6372 22.9568 18.7357 23.4481 18.7354 23.9444V27.2402C18.7588 27.5039 18.7354 27.7647 19.1748 27.7647C24.3633 26.0156 28.0986 21.1143 28.0986 15.3399C28.0986 8.09767 22.2275 2.23537 14.9883 2.23537Z" fill="white"/>
</svg>
