<svg width="30" height="30" viewBox="0 0 30 30" fill="none" xmlns="http://www.w3.org/2000/svg">
<g clip-path="url(#clip0)">
<path d="M6.81104 29.9997V9.75878H0.380267V29.9997H6.81104ZM3.59648 6.99356C5.839 6.99356 7.23487 5.43929 7.23487 3.49697C7.19309 1.51085 5.83909 -0.000282288 3.63904 -0.000282288C1.43933 -0.000282288 0.000854492 1.51088 0.000854492 3.49697C0.000854492 5.43938 1.39637 6.99356 3.5545 6.99356H3.59628H3.59648ZM10.3704 29.9997H16.8012V18.6962C16.8012 18.0912 16.843 17.4869 17.0128 17.0545C17.4777 15.8458 18.5358 14.594 20.3123 14.594C22.6393 14.594 23.5702 16.4501 23.5702 19.1711V29.9996H30.0006V18.3936C30.0006 12.1764 26.828 9.28358 22.597 9.28358C19.1278 9.28358 17.6046 11.3122 16.7584 12.6939H16.8014V9.75836H10.3706C10.455 11.6577 10.3706 29.9993 10.3706 29.9993L10.3704 29.9997Z" fill="white"/>
</g>
<defs>
<clipPath id="clip0">
<rect width="30" height="30" fill="white"/>
</clipPath>
</defs>
</svg>
