<svg width="62" height="62" viewBox="0 0 62 62" fill="none" xmlns="http://www.w3.org/2000/svg">
<g clip-path="url(#clip0)">
<path fill-rule="evenodd" clip-rule="evenodd" d="M12.5182 8.45379C11.1203 13.99 11.8899 19.8512 14.6695 24.839L16.4893 28.1001C17.2389 29.4465 18.051 30.7571 18.9229 32.0277L16.3548 42.2023C16.201 42.8127 16.2079 43.4525 16.3748 44.0594C16.5416 44.6663 16.8628 45.2197 17.307 45.6656L25.0435 53.4413C25.2194 53.6179 25.435 53.7499 25.6723 53.8263C25.9096 53.9026 26.1617 53.921 26.4076 53.8801C26.6535 53.8391 26.886 53.7398 27.0857 53.5907C27.2855 53.4415 27.4466 53.2467 27.5557 53.0225L31.8315 44.2802C31.9503 44.2264 32.0672 44.1635 32.18 44.091L36.9801 41.0181L41.9624 38.2533C42.0798 38.1884 42.1906 38.1154 42.2944 38.0363L52.0207 38.4221C52.2696 38.4319 52.5171 38.382 52.7428 38.2767C52.9685 38.1713 53.1657 38.0136 53.318 37.8165C53.4703 37.6195 53.5734 37.3889 53.6185 37.144C53.6636 36.8991 53.6496 36.6469 53.5775 36.4086L50.4068 25.9092C50.2251 25.3065 49.8904 24.7612 49.4354 24.3263C48.9804 23.8914 48.4205 23.5817 47.8103 23.4274L37.6336 20.8587C36.9295 19.4869 36.1616 18.1488 35.3325 16.8487L33.3245 13.7033C30.2525 8.88956 25.4577 5.43114 19.9205 4.03516L17.543 3.43506C16.6057 3.19905 15.613 3.3449 14.7832 3.84056C13.9534 4.33622 13.3544 5.14111 13.1178 6.07829L12.5177 8.45581L12.5182 8.45379ZM39.3256 24.5067C39.6568 25.3058 39.9667 26.1124 40.2569 26.9291L43.0962 34.9362L49.9523 35.2099L47.4166 26.8089C47.3905 26.723 47.3427 26.6454 47.2777 26.5834C47.2128 26.5215 47.133 26.4774 47.046 26.4554L39.3256 24.5067ZM28.7262 43.5157L23.0217 37.2156C22.44 36.5746 21.8776 35.9169 21.3329 35.2487L19.3847 42.9671C19.3628 43.0541 19.3638 43.1453 19.3875 43.2318C19.4112 43.3184 19.4569 43.3973 19.5201 43.461L25.7114 49.6799L28.7262 43.5157ZM17.4 23.3172C15.008 19.0255 14.3456 13.9823 15.5482 9.21857L16.1483 6.84105C16.1821 6.70712 16.2677 6.5921 16.3863 6.5213C16.505 6.4505 16.6468 6.42972 16.7808 6.46352L19.1563 7.06311C23.9216 8.26408 28.0481 11.2403 30.6918 15.3829L32.6977 18.5278C34.589 21.4912 36.1369 24.6601 37.3118 27.9734L40.0632 35.7327L35.4214 38.3063C35.3922 38.3225 35.3635 38.3396 35.3354 38.3576L30.8647 41.2236L25.3371 35.1163C22.9803 32.5112 20.9273 29.6467 19.2177 26.5778L17.398 23.3166L17.4 23.3172ZM25.7243 17.8506C26.5279 18.0535 27.218 18.5672 27.6428 19.2789C28.0676 19.9905 28.1923 20.8418 27.9895 21.6454C27.7866 22.449 27.2729 23.1391 26.5612 23.5639C25.8496 23.9887 24.9983 24.1134 24.1947 23.9106C23.3911 23.7077 22.701 23.194 22.2762 22.4823C21.8514 21.7707 21.7267 20.9194 21.9295 20.1158C22.1324 19.3122 22.6461 18.6221 23.3578 18.1973C24.0694 17.7725 24.9207 17.6478 25.7243 17.8506ZM46.3756 46.6985C45.0165 44.4217 41.5826 43.5549 39.3057 44.914C37.0288 46.2732 36.1621 49.7071 37.5212 51.984C39.347 55.0426 44.6644 56.8918 46.3423 57.412C46.4078 57.4333 46.4772 57.4403 46.5457 57.4326C46.6142 57.4249 46.6802 57.4027 46.7394 57.3673C46.7986 57.332 46.8495 57.2844 46.8888 57.2278C46.9281 57.1712 46.9548 57.1068 46.9672 57.039C47.3056 55.3152 48.2014 49.7571 46.3756 46.6985Z" fill="white"/>
</g>
<defs>
<clipPath id="clip0">
<rect width="50" height="50" fill="white" transform="translate(0.641968 49.1215) rotate(-75.8341)"/>
</clipPath>
</defs>
</svg>
