<svg width="50" height="50" viewBox="0 0 50 50" fill="none" xmlns="http://www.w3.org/2000/svg">
<path fill-rule="evenodd" clip-rule="evenodd" d="M7.8125 42.1875C7.8125 41.7731 7.97712 41.3757 8.27015 41.0826C8.56317 40.7896 8.9606 40.625 9.375 40.625H40.625C41.0394 40.625 41.4368 40.7896 41.7299 41.0826C42.0229 41.3757 42.1875 41.7731 42.1875 42.1875C42.1875 42.6019 42.0229 42.9993 41.7299 43.2924C41.4368 43.5854 41.0394 43.75 40.625 43.75H9.375C8.9606 43.75 8.56317 43.5854 8.27015 43.2924C7.97712 42.9993 7.8125 42.6019 7.8125 42.1875ZM43.7219 9.375H6.25C5.23438 9.375 4.68125 9.61875 4.36875 9.82812C4.02549 10.0671 3.75162 10.3927 3.575 10.7719C3.30862 11.3223 3.15559 11.9206 3.125 12.5313V31.25C3.125 32.2656 3.36875 32.8188 3.57812 33.1313C3.79688 33.4594 4.10938 33.7188 4.52187 33.925C5.04855 34.1801 5.61929 34.3318 6.20312 34.3719L6.28125 34.375H43.75C44.7656 34.375 45.3188 34.1312 45.6313 33.9219C45.9745 33.6829 46.2484 33.3573 46.425 32.9781C46.6801 32.4514 46.8318 31.8807 46.8719 31.2969L46.875 31.2188V12.5C46.875 11.4844 46.6312 10.9313 46.4219 10.6188C46.183 10.2754 45.8574 10.0015 45.4781 9.825C44.9277 9.55862 44.3294 9.40559 43.7188 9.375H43.7219ZM43.75 6.25H6.25C0 6.25 0 12.5 0 12.5V31.25C0 37.5 6.25 37.5 6.25 37.5H43.75C50 37.5 50 31.25 50 31.25V12.5C50 6.25 43.75 6.25 43.75 6.25Z" fill="white"/>
</svg>
