<svg width="30" height="30" viewBox="0 0 30 30" fill="none" xmlns="http://www.w3.org/2000/svg">
<path d="M15 2.8125C8.2793 2.8125 2.8125 8.2793 2.8125 15C2.8125 21.7207 8.2793 27.1875 15 27.1875C21.7207 27.1875 27.1875 21.7207 27.1875 15C27.1875 8.2793 21.7207 2.8125 15 2.8125ZM23.0596 8.43164C24.5098 10.2041 25.3887 12.46 25.4092 14.918C25.0664 14.8447 21.624 14.1475 18.1611 14.584C18.0879 14.4053 18.0146 14.2266 17.9385 14.0479C17.7217 13.541 17.4902 13.0342 17.2471 12.5391C21.0938 10.9658 22.8398 8.73047 23.0596 8.43164ZM15 4.60547C17.6455 4.60547 20.0625 5.59863 21.8994 7.22754C21.7119 7.49414 20.1445 9.60059 16.4443 10.9893C14.7393 7.85449 12.8496 5.28223 12.5596 4.89551C13.3594 4.70215 14.1768 4.60547 15 4.60547ZM10.5732 5.5957C10.8486 5.9707 12.709 8.55176 14.4316 11.6162C9.5625 12.9082 5.27344 12.8906 4.80762 12.8848C5.48438 9.65332 7.66113 6.96973 10.5732 5.5957ZM4.59082 15.0146C4.59082 14.9092 4.59375 14.8008 4.59668 14.6953C5.05078 14.7041 10.0957 14.7686 15.2959 13.2129C15.5947 13.7959 15.8789 14.3877 16.1396 14.9795C16.002 15.0176 15.8643 15.0586 15.7295 15.1025C10.3594 16.8428 7.50293 21.5742 7.26562 21.9756C5.60449 20.1299 4.59082 17.6895 4.59082 15.0146ZM15 25.4238C12.5918 25.4238 10.374 24.6035 8.61035 23.2266C8.79785 22.8428 10.9043 18.7734 16.7754 16.7256L16.8428 16.7021C18.3047 20.499 18.9082 23.6836 19.0635 24.5977C17.7793 25.1465 16.3966 25.4277 15 25.4238ZM20.8154 23.6455C20.71 23.0127 20.1562 19.9658 18.7939 16.2246C22.0576 15.7031 24.9229 16.5586 25.2773 16.6699C24.8145 19.5645 23.1533 22.0664 20.8154 23.6455Z" fill="white"/>
</svg>
